<?xml version="1.0" encoding="UTF-8"?>
<svg id="Layer_2" data-name="Layer 2" xmlns="http://www.w3.org/2000/svg" xmlns:xlink="http://www.w3.org/1999/xlink" viewBox="0 0 513.04 794.49">
  <defs>
    <style>
      .cls-1, .cls-2 {
        stroke: #000;
      }

      .cls-1, .cls-2, .cls-3 {
        fill: none;
      }

      .cls-1, .cls-3 {
        stroke-linejoin: bevel;
      }

      .cls-4 {
        fill: #e31f26;
      }

      .cls-5 {
        font-size: 14px;
      }

      .cls-5, .cls-6, .cls-7 {
        font-family: Helvetica-Light, Helvetica;
        font-weight: 300;
      }

      .cls-8 {
        font-family: Helvetica-Bold, Helvetica;
        font-size: 40px;
        font-weight: 700;
      }

      .cls-2 {
        stroke-linecap: square;
        stroke-linejoin: round;
      }

      .cls-9 {
        letter-spacing: 0em;
      }

      .cls-6 {
        font-size: 16px;
      }

      .cls-7 {
        font-size: 12px;
      }

      .cls-10, .cls-11, .cls-12, .cls-13, .cls-14, .cls-15, .cls-16, .cls-17, .cls-18, .cls-19, .cls-20, .cls-21, .cls-22, .cls-23, .cls-24, .cls-25, .cls-26, .cls-27, .cls-28, .cls-29, .cls-30, .cls-31, .cls-32, .cls-33, .cls-34, .cls-35, .cls-36, .cls-37, .cls-38, .cls-39, .cls-40, .cls-41, .cls-42, .cls-43, .cls-44, .cls-45, .cls-46, .cls-47, .cls-48, .cls-49, .cls-50, .cls-51, .cls-52, .cls-53, .cls-54, .cls-55, .cls-56, .cls-57, .cls-58, .cls-59 {
        stroke-width: 0px;
      }

      .cls-11 {
        fill: #4c74a8;
      }

      .cls-12 {
        fill: #7a5a80;
      }

      .cls-13 {
        fill: #775b83;
      }

      .cls-14 {
        fill: #606896;
      }

      .cls-15 {
        fill: #835578;
      }

      .cls-16 {
        fill: #5071a4;
      }

      .cls-17 {
        fill: #4876ab;
      }

      .cls-18 {
        fill: #636794;
      }

      .cls-19 {
        fill: #586d9d;
      }

      .cls-20 {
        fill: #5a6c9c;
      }

      .cls-21 {
        fill: #626895;
      }

      .cls-22 {
        fill: #6d628c;
      }

      .cls-23 {
        fill: #895274;
      }

      .cls-24 {
        fill: #5370a2;
      }

      .cls-25 {
        fill: #546fa1;
      }

      .cls-26 {
        fill: #725e87;
      }

      .cls-27 {
        fill: #6e618b;
      }

      .cls-28 {
        fill: #6f608a;
      }

      .cls-29 {
        fill: #a4435c;
      }

      .cls-30 {
        fill: #8a5172;
      }

      .cls-31 {
        fill: #4478af;
      }

      .cls-32 {
        fill: #c72f3e;
      }

      .cls-33 {
        fill: #c82e3d;
      }

      .cls-34 {
        fill: #cd2b39;
      }

      .cls-35 {
        fill: #df2129;
      }

      .cls-36 {
        fill: #c92d3c;
      }

      .cls-37 {
        fill: #d62732;
      }

      .cls-38 {
        fill: #a84059;
      }

      .cls-39 {
        fill: #aa3f57;
      }

      .cls-40 {
        fill: #a94058;
      }

      .cls-41 {
        fill: #d12935;
      }

      .cls-42 {
        fill: #ad3d54;
      }

      .cls-43 {
        fill: #b33a50;
      }

      .cls-44 {
        fill: #a5425b;
      }

      .cls-45 {
        fill: #944c6a;
      }

      .cls-46 {
        fill: #b9364a;
      }

      .cls-47 {
        fill: #9d4662;
      }

      .cls-48 {
        fill: #904e6e;
      }

      .cls-49 {
        fill: #b8374b;
      }

      .cls-50 {
        fill: #8e4f6f;
      }

      .cls-51 {
        fill: #9a4865;
      }

      .cls-52 {
        fill: #7d587e;
      }

      .cls-53 {
        fill: #a2435e;
      }

      .cls-54 {
        fill: #a04560;
      }

      .cls-55 {
        fill: #a1445f;
      }

      .cls-56 {
        fill: #fff;
      }

      .cls-57 {
        fill: #68648f;
      }

      .cls-58 {
        fill: #676590;
      }

      .cls-59 {
        fill: #6a638e;
      }

      .cls-3 {
        stroke: url(#linear-gradient);
        stroke-dasharray: 0 0 10 6;
      }
    </style>
    <linearGradient id="linear-gradient" x1="163.6" y1="322.8" x2="497.15" y2="322.8" gradientUnits="userSpaceOnUse">
      <stop offset="0" stop-color="#cce0f4"/>
      <stop offset=".1" stop-color="#cdd7ea"/>
      <stop offset=".26" stop-color="#cfbfd1"/>
      <stop offset=".47" stop-color="#d498a7"/>
      <stop offset=".72" stop-color="#da626d"/>
      <stop offset=".99" stop-color="#e31f26"/>
    </linearGradient>
  </defs>
  <g id="Layer_1-2" data-name="Layer 1">
    <line class="cls-2" x1="58.89" y1="734.38" x2="496.72" y2="734.38"/>
    <line class="cls-2" x1="116.5" y1="734.38" x2="116.5" y2="744.34"/>
    <line class="cls-2" x1="164.03" y1="734.38" x2="164.03" y2="744.34"/>
    <line class="cls-2" x1="211.55" y1="734.38" x2="211.55" y2="744.34"/>
    <line class="cls-2" x1="259.08" y1="734.38" x2="259.08" y2="744.34"/>
    <line class="cls-2" x1="306.61" y1="734.38" x2="306.61" y2="744.34"/>
    <line class="cls-2" x1="354.13" y1="734.38" x2="354.13" y2="744.34"/>
    <line class="cls-2" x1="401.66" y1="734.38" x2="401.66" y2="744.34"/>
    <line class="cls-2" x1="449.19" y1="734.38" x2="449.19" y2="744.34"/>
    <line class="cls-2" x1="496.72" y1="734.38" x2="496.72" y2="744.34"/>
    <line class="cls-2" x1="68.97" y1="744.34" x2="68.97" y2="5.58"/>
    <line class="cls-2" x1="68.97" y1="612.91" x2="58.89" y2="612.91"/>
    <line class="cls-2" x1="68.97" y1="491.44" x2="58.89" y2="491.44"/>
    <line class="cls-2" x1="68.97" y1="369.98" x2="58.89" y2="369.98"/>
    <line class="cls-2" x1="68.97" y1="248.51" x2="58.89" y2="248.51"/>
    <line class="cls-2" x1="68.97" y1="127.05" x2="58.89" y2="127.05"/>
    <line class="cls-2" x1="68.97" y1="5.58" x2="58.89" y2="5.58"/>
    <circle class="cls-57" cx="73.72" cy="573.3" r="6.97"/>
    <path class="cls-56" d="m73.72,566.03c-4.01,0-7.26,3.25-7.26,7.26s3.25,7.26,7.26,7.26,7.26-3.25,7.26-7.26-3.25-7.26-7.26-7.26Zm0,.58c3.69,0,6.68,2.99,6.68,6.68s-2.99,6.68-6.68,6.68-6.68-2.99-6.68-6.68,2.99-6.68,6.68-6.68Z"/>
    <circle class="cls-19" cx="78.48" cy="616.18" r="6.97"/>
    <path class="cls-56" d="m78.48,608.92c-4.01,0-7.26,3.25-7.26,7.26s3.25,7.26,7.26,7.26,7.26-3.25,7.26-7.26-3.25-7.26-7.26-7.26Zm0,.58c3.69,0,6.68,2.99,6.68,6.68s-2.99,6.68-6.68,6.68-6.68-2.99-6.68-6.68,2.99-6.68,6.68-6.68Z"/>
    <circle class="cls-20" cx="83.23" cy="614.38" r="6.97"/>
    <path class="cls-56" d="m83.23,607.11c-4.01,0-7.26,3.25-7.26,7.26s3.25,7.26,7.26,7.26,7.26-3.25,7.26-7.26-3.25-7.26-7.26-7.26Zm0,.58c3.69,0,6.68,2.99,6.68,6.68s-2.99,6.68-6.68,6.68-6.68-2.99-6.68-6.68,2.99-6.68,6.68-6.68Z"/>
    <circle class="cls-25" cx="87.98" cy="629.93" r="6.97"/>
    <path class="cls-56" d="m87.98,622.66c-4.01,0-7.26,3.25-7.26,7.26s3.25,7.26,7.26,7.26,7.26-3.25,7.26-7.26-3.25-7.26-7.26-7.26Zm0,.58c3.69,0,6.68,2.99,6.68,6.68s-2.99,6.68-6.68,6.68-6.68-2.99-6.68-6.68,2.99-6.68,6.68-6.68Z"/>
    <circle class="cls-31" cx="92.73" cy="672.92" r="6.97"/>
    <path class="cls-56" d="m92.73,665.66c-4.01,0-7.26,3.25-7.26,7.26s3.25,7.26,7.26,7.26,7.26-3.25,7.26-7.26-3.25-7.26-7.26-7.26Zm0,.58c3.69,0,6.68,2.99,6.68,6.68s-2.99,6.68-6.68,6.68-6.68-2.99-6.68-6.68,2.99-6.68,6.68-6.68Z"/>
    <circle class="cls-18" cx="97.49" cy="587.28" r="6.97"/>
    <path class="cls-56" d="m97.49,580.01c-4.01,0-7.26,3.25-7.26,7.26s3.25,7.26,7.26,7.26,7.26-3.25,7.26-7.26-3.25-7.26-7.26-7.26Zm0,.58c3.69,0,6.68,2.99,6.68,6.68s-2.99,6.68-6.68,6.68-6.68-2.99-6.68-6.68,2.99-6.68,6.68-6.68Z"/>
    <circle class="cls-16" cx="102.24" cy="639.83" r="6.97"/>
    <path class="cls-56" d="m102.24,632.57c-4.01,0-7.26,3.25-7.26,7.26s3.25,7.26,7.26,7.26,7.26-3.25,7.26-7.26-3.25-7.26-7.26-7.26Zm0,.58c3.69,0,6.68,2.99,6.68,6.68s-2.99,6.68-6.68,6.68-6.68-2.99-6.68-6.68,2.99-6.68,6.68-6.68Z"/>
    <circle class="cls-17" cx="106.99" cy="661.28" r="6.97"/>
    <path class="cls-56" d="m106.99,654.01c-4.01,0-7.26,3.25-7.26,7.26s3.25,7.26,7.26,7.26,7.26-3.25,7.26-7.26-3.25-7.26-7.26-7.26Zm0,.58c3.69,0,6.68,2.99,6.68,6.68s-2.99,6.68-6.68,6.68-6.68-2.99-6.68-6.68,2.99-6.68,6.68-6.68Z"/>
    <circle class="cls-58" cx="111.75" cy="574.54" r="6.97"/>
    <path class="cls-56" d="m111.75,567.28c-4.01,0-7.26,3.25-7.26,7.26s3.25,7.26,7.26,7.26,7.26-3.25,7.26-7.26-3.25-7.26-7.26-7.26Zm0,.58c3.69,0,6.68,2.99,6.68,6.68s-2.99,6.68-6.68,6.68-6.68-2.99-6.68-6.68,2.99-6.68,6.68-6.68Z"/>
    <circle class="cls-21" cx="116.5" cy="590.44" r="6.97"/>
    <path class="cls-56" d="m116.5,583.18c-4.01,0-7.26,3.25-7.26,7.26s3.25,7.26,7.26,7.26,7.26-3.25,7.26-7.26-3.25-7.26-7.26-7.26Zm0,.58c3.69,0,6.68,2.99,6.68,6.68s-2.99,6.68-6.68,6.68-6.68-2.99-6.68-6.68,2.99-6.68,6.68-6.68Z"/>
    <circle class="cls-17" cx="121.25" cy="661.62" r="6.97"/>
    <path class="cls-56" d="m121.25,654.36c-4.01,0-7.26,3.25-7.26,7.26s3.25,7.26,7.26,7.26,7.26-3.25,7.26-7.26-3.25-7.26-7.26-7.26Zm0,.58c3.69,0,6.68,2.99,6.68,6.68s-2.99,6.68-6.68,6.68-6.68-2.99-6.68-6.68,2.99-6.68,6.68-6.68Z"/>
    <circle class="cls-24" cx="126" cy="633.54" r="6.97"/>
    <path class="cls-56" d="m126,626.27c-4.01,0-7.26,3.25-7.26,7.26s3.25,7.26,7.26,7.26,7.26-3.25,7.26-7.26-3.25-7.26-7.26-7.26Zm0,.58c3.69,0,6.68,2.99,6.68,6.68s-2.99,6.68-6.68,6.68-6.68-2.99-6.68-6.68,2.99-6.68,6.68-6.68Z"/>
    <circle class="cls-27" cx="130.76" cy="557.19" r="6.97"/>
    <path class="cls-56" d="m130.76,549.92c-4.01,0-7.26,3.25-7.26,7.26s3.25,7.26,7.26,7.26,7.26-3.25,7.26-7.26-3.25-7.26-7.26-7.26Zm0,.58c3.69,0,6.68,2.99,6.68,6.68s-2.99,6.68-6.68,6.68-6.68-2.99-6.68-6.68,2.99-6.68,6.68-6.68Z"/>
    <circle class="cls-11" cx="135.51" cy="652.51" r="6.97"/>
    <path class="cls-56" d="m135.51,645.25c-4.01,0-7.26,3.25-7.26,7.26s3.25,7.26,7.26,7.26,7.26-3.25,7.26-7.26-3.25-7.26-7.26-7.26Zm0,.58c3.69,0,6.68,2.99,6.68,6.68s-2.99,6.68-6.68,6.68-6.68-2.99-6.68-6.68,2.99-6.68,6.68-6.68Z"/>
    <circle class="cls-19" cx="140.26" cy="618.62" r="6.97"/>
    <path class="cls-56" d="m140.26,611.35c-4.01,0-7.26,3.25-7.26,7.26s3.25,7.26,7.26,7.26,7.26-3.25,7.26-7.26-3.25-7.26-7.26-7.26Zm0,.58c3.69,0,6.68,2.99,6.68,6.68s-2.99,6.68-6.68,6.68-6.68-2.99-6.68-6.68,2.99-6.68,6.68-6.68Z"/>
    <circle class="cls-31" cx="145.01" cy="672.65" r="6.97"/>
    <path class="cls-56" d="m145.01,665.39c-4.01,0-7.26,3.25-7.26,7.26s3.25,7.26,7.26,7.26,7.26-3.25,7.26-7.26-3.25-7.26-7.26-7.26Zm0,.58c3.69,0,6.68,2.99,6.68,6.68s-2.99,6.68-6.68,6.68-6.68-2.99-6.68-6.68,2.99-6.68,6.68-6.68Z"/>
    <circle class="cls-57" cx="149.77" cy="572.63" r="6.97"/>
    <path class="cls-56" d="m149.77,565.36c-4.01,0-7.26,3.25-7.26,7.26s3.25,7.26,7.26,7.26,7.26-3.25,7.26-7.26-3.25-7.26-7.26-7.26Zm0,.58c3.69,0,6.68,2.99,6.68,6.68s-2.99,6.68-6.68,6.68-6.68-2.99-6.68-6.68,2.99-6.68,6.68-6.68Z"/>
    <circle class="cls-14" cx="154.52" cy="595.99" r="6.97"/>
    <path class="cls-56" d="m154.52,588.73c-4.01,0-7.26,3.25-7.26,7.26s3.25,7.26,7.26,7.26,7.26-3.25,7.26-7.26-3.25-7.26-7.26-7.26Zm0,.58c3.69,0,6.68,2.99,6.68,6.68s-2.99,6.68-6.68,6.68-6.68-2.99-6.68-6.68,2.99-6.68,6.68-6.68Z"/>
    <circle class="cls-27" cx="159.27" cy="556.11" r="6.97"/>
    <path class="cls-56" d="m159.27,548.85c-4.01,0-7.26,3.25-7.26,7.26s3.25,7.26,7.26,7.26,7.26-3.25,7.26-7.26-3.25-7.26-7.26-7.26Zm0,.58c3.69,0,6.68,2.99,6.68,6.68s-2.99,6.68-6.68,6.68-6.68-2.99-6.68-6.68,2.99-6.68,6.68-6.68Z"/>
    <circle class="cls-28" cx="164.03" cy="552.84" r="6.97"/>
    <path class="cls-56" d="m164.03,545.57c-4.01,0-7.26,3.25-7.26,7.26s3.25,7.26,7.26,7.26,7.26-3.25,7.26-7.26-3.25-7.26-7.26-7.26Zm0,.58c3.69,0,6.68,2.99,6.68,6.68s-2.99,6.68-6.68,6.68-6.68-2.99-6.68-6.68,2.99-6.68,6.68-6.68Z"/>
    <circle class="cls-59" cx="168.78" cy="569.51" r="6.97"/>
    <path class="cls-56" d="m168.78,562.25c-4.01,0-7.26,3.25-7.26,7.26s3.25,7.26,7.26,7.26,7.26-3.25,7.26-7.26-3.25-7.26-7.26-7.26Zm0,.58c3.69,0,6.68,2.99,6.68,6.68s-2.99,6.68-6.68,6.68-6.68-2.99-6.68-6.68,2.99-6.68,6.68-6.68Z"/>
    <circle class="cls-57" cx="173.53" cy="570.03" r="6.97"/>
    <path class="cls-56" d="m173.53,562.77c-4.01,0-7.26,3.25-7.26,7.26s3.25,7.26,7.26,7.26,7.26-3.25,7.26-7.26-3.25-7.26-7.26-7.26Zm0,.58c3.69,0,6.68,2.99,6.68,6.68s-2.99,6.68-6.68,6.68-6.68-2.99-6.68-6.68,2.99-6.68,6.68-6.68Z"/>
    <circle class="cls-13" cx="178.28" cy="529.2" r="6.97"/>
    <path class="cls-56" d="m178.28,521.93c-4.01,0-7.26,3.25-7.26,7.26s3.25,7.26,7.26,7.26,7.26-3.25,7.26-7.26-3.25-7.26-7.26-7.26Zm0,.58c3.69,0,6.68,2.99,6.68,6.68s-2.99,6.68-6.68,6.68-6.68-2.99-6.68-6.68,2.99-6.68,6.68-6.68Z"/>
    <circle class="cls-14" cx="183.04" cy="593.45" r="6.97"/>
    <path class="cls-56" d="m183.04,586.18c-4.01,0-7.26,3.25-7.26,7.26s3.25,7.26,7.26,7.26,7.26-3.25,7.26-7.26-3.25-7.26-7.26-7.26Zm0,.58c3.69,0,6.68,2.99,6.68,6.68s-2.99,6.68-6.68,6.68-6.68-2.99-6.68-6.68,2.99-6.68,6.68-6.68Z"/>
    <circle class="cls-14" cx="187.79" cy="595.59" r="6.97"/>
    <path class="cls-56" d="m187.79,588.33c-4.01,0-7.26,3.25-7.26,7.26s3.25,7.26,7.26,7.26,7.26-3.25,7.26-7.26-3.25-7.26-7.26-7.26Zm0,.58c3.69,0,6.68,2.99,6.68,6.68s-2.99,6.68-6.68,6.68-6.68-2.99-6.68-6.68,2.99-6.68,6.68-6.68Z"/>
    <circle class="cls-58" cx="192.54" cy="576.19" r="6.97"/>
    <path class="cls-56" d="m192.54,568.92c-4.01,0-7.26,3.25-7.26,7.26s3.25,7.26,7.26,7.26,7.26-3.25,7.26-7.26-3.25-7.26-7.26-7.26Zm0,.58c3.69,0,6.68,2.99,6.68,6.68s-2.99,6.68-6.68,6.68-6.68-2.99-6.68-6.68,2.99-6.68,6.68-6.68Z"/>
    <circle class="cls-52" cx="197.29" cy="514.52" r="6.97"/>
    <path class="cls-56" d="m197.29,507.25c-4.01,0-7.26,3.25-7.26,7.26s3.25,7.26,7.26,7.26,7.26-3.25,7.26-7.26-3.25-7.26-7.26-7.26Zm0,.58c3.69,0,6.68,2.99,6.68,6.68s-2.99,6.68-6.68,6.68-6.68-2.99-6.68-6.68,2.99-6.68,6.68-6.68Z"/>
    <circle class="cls-15" cx="202.05" cy="493.85" r="6.97"/>
    <path class="cls-56" d="m202.05,486.59c-4.01,0-7.26,3.25-7.26,7.26s3.25,7.26,7.26,7.26,7.26-3.25,7.26-7.26-3.25-7.26-7.26-7.26Zm0,.58c3.69,0,6.68,2.99,6.68,6.68s-2.99,6.68-6.68,6.68-6.68-2.99-6.68-6.68,2.99-6.68,6.68-6.68Z"/>
    <circle class="cls-28" cx="206.8" cy="550.68" r="6.97"/>
    <path class="cls-56" d="m206.8,543.41c-4.01,0-7.26,3.25-7.26,7.26s3.25,7.26,7.26,7.26,7.26-3.25,7.26-7.26-3.25-7.26-7.26-7.26Zm0,.58c3.69,0,6.68,2.99,6.68,6.68s-2.99,6.68-6.68,6.68-6.68-2.99-6.68-6.68,2.99-6.68,6.68-6.68Z"/>
    <circle class="cls-30" cx="211.55" cy="478.02" r="6.97"/>
    <path class="cls-56" d="m211.55,470.75c-4.01,0-7.26,3.25-7.26,7.26s3.25,7.26,7.26,7.26,7.26-3.25,7.26-7.26-3.25-7.26-7.26-7.26Zm0,.58c3.69,0,6.68,2.99,6.68,6.68s-2.99,6.68-6.68,6.68-6.68-2.99-6.68-6.68,2.99-6.68,6.68-6.68Z"/>
    <circle class="cls-12" cx="216.31" cy="523.47" r="6.97"/>
    <path class="cls-56" d="m216.31,516.21c-4.01,0-7.26,3.25-7.26,7.26s3.25,7.26,7.26,7.26,7.26-3.25,7.26-7.26-3.25-7.26-7.26-7.26Zm0,.58c3.69,0,6.68,2.99,6.68,6.68s-2.99,6.68-6.68,6.68-6.68-2.99-6.68-6.68,2.99-6.68,6.68-6.68Z"/>
    <circle class="cls-27" cx="221.06" cy="555.46" r="6.97"/>
    <path class="cls-56" d="m221.06,548.19c-4.01,0-7.26,3.25-7.26,7.26s3.25,7.26,7.26,7.26,7.26-3.25,7.26-7.26-3.25-7.26-7.26-7.26Zm0,.58c3.69,0,6.68,2.99,6.68,6.68s-2.99,6.68-6.68,6.68-6.68-2.99-6.68-6.68,2.99-6.68,6.68-6.68Z"/>
    <circle class="cls-22" cx="225.81" cy="560.44" r="6.97"/>
    <path class="cls-56" d="m225.81,553.18c-4.01,0-7.26,3.25-7.26,7.26s3.25,7.26,7.26,7.26,7.26-3.25,7.26-7.26-3.25-7.26-7.26-7.26Zm0,.58c3.69,0,6.68,2.99,6.68,6.68s-2.99,6.68-6.68,6.68-6.68-2.99-6.68-6.68,2.99-6.68,6.68-6.68Z"/>
    <circle class="cls-50" cx="230.56" cy="464.84" r="6.97"/>
    <path class="cls-56" d="m230.56,457.57c-4.01,0-7.26,3.25-7.26,7.26s3.25,7.26,7.26,7.26,7.26-3.25,7.26-7.26-3.25-7.26-7.26-7.26Zm0,.58c3.69,0,6.68,2.99,6.68,6.68s-2.99,6.68-6.68,6.68-6.68-2.99-6.68-6.68,2.99-6.68,6.68-6.68Z"/>
    <circle class="cls-48" cx="235.32" cy="460.05" r="6.97"/>
    <path class="cls-56" d="m235.32,452.78c-4.01,0-7.26,3.25-7.26,7.26s3.25,7.26,7.26,7.26,7.26-3.25,7.26-7.26-3.25-7.26-7.26-7.26Zm0,.58c3.69,0,6.68,2.99,6.68,6.68s-2.99,6.68-6.68,6.68-6.68-2.99-6.68-6.68,2.99-6.68,6.68-6.68Z"/>
    <circle class="cls-26" cx="240.07" cy="545.08" r="6.97"/>
    <path class="cls-56" d="m240.07,537.81c-4.01,0-7.26,3.25-7.26,7.26s3.25,7.26,7.26,7.26,7.26-3.25,7.26-7.26-3.25-7.26-7.26-7.26Zm0,.58c3.69,0,6.68,2.99,6.68,6.68s-2.99,6.68-6.68,6.68-6.68-2.99-6.68-6.68,2.99-6.68,6.68-6.68Z"/>
    <circle class="cls-23" cx="244.82" cy="480.76" r="6.97"/>
    <path class="cls-56" d="m244.82,473.49c-4.01,0-7.26,3.25-7.26,7.26s3.25,7.26,7.26,7.26,7.26-3.25,7.26-7.26-3.25-7.26-7.26-7.26Zm0,.58c3.69,0,6.68,2.99,6.68,6.68s-2.99,6.68-6.68,6.68-6.68-2.99-6.68-6.68,2.99-6.68,6.68-6.68Z"/>
    <circle class="cls-42" cx="249.57" cy="376.96" r="6.97"/>
    <path class="cls-56" d="m249.57,369.7c-4.01,0-7.26,3.25-7.26,7.26s3.25,7.26,7.26,7.26,7.26-3.25,7.26-7.26-3.25-7.26-7.26-7.26Zm0,.58c3.69,0,6.68,2.99,6.68,6.68s-2.99,6.68-6.68,6.68-6.68-2.99-6.68-6.68,2.99-6.68,6.68-6.68Z"/>
    <circle class="cls-51" cx="254.33" cy="432.34" r="6.97"/>
    <path class="cls-56" d="m254.33,425.07c-4.01,0-7.26,3.25-7.26,7.26s3.25,7.26,7.26,7.26,7.26-3.25,7.26-7.26-3.25-7.26-7.26-7.26Zm0,.58c3.69,0,6.68,2.99,6.68,6.68s-2.99,6.68-6.68,6.68-6.68-2.99-6.68-6.68,2.99-6.68,6.68-6.68Z"/>
    <circle class="cls-45" cx="259.08" cy="450.2" r="6.97"/>
    <path class="cls-56" d="m259.08,442.93c-4.01,0-7.26,3.25-7.26,7.26s3.25,7.26,7.26,7.26,7.26-3.25,7.26-7.26-3.25-7.26-7.26-7.26Zm0,.58c3.69,0,6.68,2.99,6.68,6.68s-2.99,6.68-6.68,6.68-6.68-2.99-6.68-6.68,2.99-6.68,6.68-6.68Z"/>
    <circle class="cls-29" cx="263.83" cy="406.38" r="6.97"/>
    <path class="cls-56" d="m263.83,399.12c-4.01,0-7.26,3.25-7.26,7.26s3.25,7.26,7.26,7.26,7.26-3.25,7.26-7.26-3.25-7.26-7.26-7.26Zm0,.58c3.69,0,6.68,2.99,6.68,6.68s-2.99,6.68-6.68,6.68-6.68-2.99-6.68-6.68,2.99-6.68,6.68-6.68Z"/>
    <circle class="cls-40" cx="268.59" cy="388.2" r="6.97"/>
    <path class="cls-56" d="m268.59,380.93c-4.01,0-7.26,3.25-7.26,7.26s3.25,7.26,7.26,7.26,7.26-3.25,7.26-7.26-3.25-7.26-7.26-7.26Zm0,.58c3.69,0,6.68,2.99,6.68,6.68s-2.99,6.68-6.68,6.68-6.68-2.99-6.68-6.68,2.99-6.68,6.68-6.68Z"/>
    <circle class="cls-53" cx="273.34" cy="407.82" r="6.97"/>
    <path class="cls-56" d="m273.34,400.56c-4.01,0-7.26,3.25-7.26,7.26s3.25,7.26,7.26,7.26,7.26-3.25,7.26-7.26-3.25-7.26-7.26-7.26Zm0,.58c3.69,0,6.68,2.99,6.68,6.68s-2.99,6.68-6.68,6.68-6.68-2.99-6.68-6.68,2.99-6.68,6.68-6.68Z"/>
    <circle class="cls-47" cx="278.09" cy="423.95" r="6.97"/>
    <path class="cls-56" d="m278.09,416.68c-4.01,0-7.26,3.25-7.26,7.26s3.25,7.26,7.26,7.26,7.26-3.25,7.26-7.26-3.25-7.26-7.26-7.26Zm0,.58c3.69,0,6.68,2.99,6.68,6.68s-2.99,6.68-6.68,6.68-6.68-2.99-6.68-6.68,2.99-6.68,6.68-6.68Z"/>
    <circle class="cls-29" cx="282.84" cy="405.69" r="6.97"/>
    <path class="cls-56" d="m282.84,398.43c-4.01,0-7.26,3.25-7.26,7.26s3.25,7.26,7.26,7.26,7.26-3.25,7.26-7.26-3.25-7.26-7.26-7.26Zm0,.58c3.69,0,6.68,2.99,6.68,6.68s-2.99,6.68-6.68,6.68-6.68-2.99-6.68-6.68,2.99-6.68,6.68-6.68Z"/>
    <circle class="cls-44" cx="287.6" cy="399.96" r="6.97"/>
    <path class="cls-56" d="m287.6,392.7c-4.01,0-7.26,3.25-7.26,7.26s3.25,7.26,7.26,7.26,7.26-3.25,7.26-7.26-3.25-7.26-7.26-7.26Zm0,.58c3.69,0,6.68,2.99,6.68,6.68s-2.99,6.68-6.68,6.68-6.68-2.99-6.68-6.68,2.99-6.68,6.68-6.68Z"/>
    <circle class="cls-43" cx="292.35" cy="364.5" r="6.97"/>
    <path class="cls-56" d="m292.35,357.24c-4.01,0-7.26,3.25-7.26,7.26s3.25,7.26,7.26,7.26,7.26-3.25,7.26-7.26-3.25-7.26-7.26-7.26Zm0,.58c3.69,0,6.68,2.99,6.68,6.68s-2.99,6.68-6.68,6.68-6.68-2.99-6.68-6.68,2.99-6.68,6.68-6.68Z"/>
    <circle class="cls-54" cx="297.1" cy="416.52" r="6.97"/>
    <path class="cls-56" d="m297.1,409.26c-4.01,0-7.26,3.25-7.26,7.26s3.25,7.26,7.26,7.26,7.26-3.25,7.26-7.26-3.25-7.26-7.26-7.26Zm0,.58c3.69,0,6.68,2.99,6.68,6.68s-2.99,6.68-6.68,6.68-6.68-2.99-6.68-6.68,2.99-6.68,6.68-6.68Z"/>
    <circle class="cls-38" cx="301.85" cy="391.7" r="6.97"/>
    <path class="cls-56" d="m301.85,384.44c-4.01,0-7.26,3.25-7.26,7.26s3.25,7.26,7.26,7.26,7.26-3.25,7.26-7.26-3.25-7.26-7.26-7.26Zm0,.58c3.69,0,6.68,2.99,6.68,6.68s-2.99,6.68-6.68,6.68-6.68-2.99-6.68-6.68,2.99-6.68,6.68-6.68Z"/>
    <circle class="cls-49" cx="306.61" cy="345.92" r="6.97"/>
    <path class="cls-56" d="m306.61,338.65c-4.01,0-7.26,3.25-7.26,7.26s3.25,7.26,7.26,7.26,7.26-3.25,7.26-7.26-3.25-7.26-7.26-7.26Zm0,.58c3.69,0,6.68,2.99,6.68,6.68s-2.99,6.68-6.68,6.68-6.68-2.99-6.68-6.68,2.99-6.68,6.68-6.68Z"/>
    <circle class="cls-55" cx="311.36" cy="413.37" r="6.97"/>
    <path class="cls-56" d="m311.36,406.1c-4.01,0-7.26,3.25-7.26,7.26s3.25,7.26,7.26,7.26,7.26-3.25,7.26-7.26-3.25-7.26-7.26-7.26Zm0,.58c3.69,0,6.68,2.99,6.68,6.68s-2.99,6.68-6.68,6.68-6.68-2.99-6.68-6.68,2.99-6.68,6.68-6.68Z"/>
    <circle class="cls-38" cx="316.11" cy="393.73" r="6.97"/>
    <path class="cls-56" d="m316.11,386.47c-4.01,0-7.26,3.25-7.26,7.26s3.25,7.26,7.26,7.26,7.26-3.25,7.26-7.26-3.25-7.26-7.26-7.26Zm0,.58c3.69,0,6.68,2.99,6.68,6.68s-2.99,6.68-6.68,6.68-6.68-2.99-6.68-6.68,2.99-6.68,6.68-6.68Z"/>
    <circle class="cls-39" cx="320.87" cy="386.69" r="6.97"/>
    <path class="cls-56" d="m320.87,379.43c-4.01,0-7.26,3.25-7.26,7.26s3.25,7.26,7.26,7.26,7.26-3.25,7.26-7.26-3.25-7.26-7.26-7.26Zm0,.58c3.69,0,6.68,2.99,6.68,6.68s-2.99,6.68-6.68,6.68-6.68-2.99-6.68-6.68,2.99-6.68,6.68-6.68Z"/>
    <circle class="cls-46" cx="325.62" cy="342.09" r="6.97"/>
    <path class="cls-56" d="m325.62,334.82c-4.01,0-7.26,3.25-7.26,7.26s3.25,7.26,7.26,7.26,7.26-3.25,7.26-7.26-3.25-7.26-7.26-7.26Zm0,.58c3.69,0,6.68,2.99,6.68,6.68s-2.99,6.68-6.68,6.68-6.68-2.99-6.68-6.68,2.99-6.68,6.68-6.68Z"/>
    <circle class="cls-32" cx="330.37" cy="304.44" r="6.97"/>
    <path class="cls-56" d="m330.37,297.18c-4.01,0-7.26,3.25-7.26,7.26s3.25,7.26,7.26,7.26,7.26-3.25,7.26-7.26-3.25-7.26-7.26-7.26Zm0,.58c3.69,0,6.68,2.99,6.68,6.68s-2.99,6.68-6.68,6.68-6.68-2.99-6.68-6.68,2.99-6.68,6.68-6.68Z"/>
    <circle class="cls-37" cx="335.12" cy="263.2" r="6.97"/>
    <path class="cls-56" d="m335.12,255.94c-4.01,0-7.26,3.25-7.26,7.26s3.25,7.26,7.26,7.26,7.26-3.25,7.26-7.26-3.25-7.26-7.26-7.26Zm0,.58c3.69,0,6.68,2.99,6.68,6.68s-2.99,6.68-6.68,6.68-6.68-2.99-6.68-6.68,2.99-6.68,6.68-6.68Z"/>
    <circle class="cls-33" cx="339.88" cy="301.77" r="6.97"/>
    <path class="cls-56" d="m339.88,294.5c-4.01,0-7.26,3.25-7.26,7.26s3.25,7.26,7.26,7.26,7.26-3.25,7.26-7.26-3.25-7.26-7.26-7.26Zm0,.58c3.69,0,6.68,2.99,6.68,6.68s-2.99,6.68-6.68,6.68-6.68-2.99-6.68-6.68,2.99-6.68,6.68-6.68Z"/>
    <circle class="cls-36" cx="344.63" cy="296.59" r="6.97"/>
    <path class="cls-56" d="m344.63,289.32c-4.01,0-7.26,3.25-7.26,7.26s3.25,7.26,7.26,7.26,7.26-3.25,7.26-7.26-3.25-7.26-7.26-7.26Zm0,.58c3.69,0,6.68,2.99,6.68,6.68s-2.99,6.68-6.68,6.68-6.68-2.99-6.68-6.68,2.99-6.68,6.68-6.68Z"/>
    <circle class="cls-37" cx="349.38" cy="262.34" r="6.97"/>
    <path class="cls-56" d="m349.38,255.08c-4.01,0-7.26,3.25-7.26,7.26s3.25,7.26,7.26,7.26,7.26-3.25,7.26-7.26-3.25-7.26-7.26-7.26Zm0,.58c3.69,0,6.68,2.99,6.68,6.68s-2.99,6.68-6.68,6.68-6.68-2.99-6.68-6.68,2.99-6.68,6.68-6.68Z"/>
    <circle class="cls-35" cx="354.13" cy="235.87" r="6.97"/>
    <path class="cls-56" d="m354.13,228.61c-4.01,0-7.26,3.25-7.26,7.26s3.25,7.26,7.26,7.26,7.26-3.25,7.26-7.26-3.25-7.26-7.26-7.26Zm0,.58c3.69,0,6.68,2.99,6.68,6.68s-2.99,6.68-6.68,6.68-6.68-2.99-6.68-6.68,2.99-6.68,6.68-6.68Z"/>
    <circle class="cls-34" cx="358.89" cy="286.52" r="6.97"/>
    <path class="cls-56" d="m358.89,279.26c-4.01,0-7.26,3.25-7.26,7.26s3.25,7.26,7.26,7.26,7.26-3.25,7.26-7.26-3.25-7.26-7.26-7.26Zm0,.58c3.69,0,6.68,2.99,6.68,6.68s-2.99,6.68-6.68,6.68-6.68-2.99-6.68-6.68,2.99-6.68,6.68-6.68Z"/>
    <circle class="cls-41" cx="363.64" cy="277.15" r="6.97"/>
    <path class="cls-56" d="m363.64,269.89c-4.01,0-7.26,3.25-7.26,7.26s3.25,7.26,7.26,7.26,7.26-3.25,7.26-7.26-3.25-7.26-7.26-7.26Zm0,.58c3.69,0,6.68,2.99,6.68,6.68s-2.99,6.68-6.68,6.68-6.68-2.99-6.68-6.68,2.99-6.68,6.68-6.68Z"/>
    <polyline class="cls-3" points="164.03 600.62 164.5 599.83 164.98 599.03 165.45 598.24 165.93 597.45 166.4 596.65 166.88 595.86 167.35 595.06 167.83 594.27 168.3 593.48 168.78 592.68 169.25 591.89 169.73 591.09 170.2 590.3 170.68 589.51 171.15 588.71 171.63 587.92 172.11 587.13 172.58 586.33 173.06 585.54 173.53 584.74 174.01 583.95 174.48 583.16 174.96 582.36 175.43 581.57 175.91 580.78 176.38 579.98 176.86 579.19 177.33 578.39 177.81 577.6 178.28 576.81 178.76 576.01 179.23 575.22 179.71 574.43 180.18 573.63 180.66 572.84 181.14 572.04 181.61 571.25 182.09 570.46 182.56 569.66 183.04 568.87 183.51 568.08 183.99 567.28 184.46 566.49 184.94 565.69 185.41 564.9 185.89 564.11 186.36 563.31 186.84 562.52 187.31 561.72 187.79 560.93 188.26 560.14 188.74 559.34 189.22 558.55 189.69 557.76 190.17 556.96 190.64 556.17 191.12 555.37 191.59 554.58 192.07 553.79 192.54 552.99 193.02 552.2 193.49 551.41 193.97 550.61 194.44 549.82 194.92 549.02 195.39 548.23 195.87 547.44 196.34 546.64 196.82 545.85 197.29 545.06 197.77 544.26 198.24 543.47 198.72 542.67 199.2 541.88 199.67 541.09 200.15 540.29 200.62 539.5 201.1 538.71 201.57 537.91 202.05 537.12 202.52 536.32 203 535.53 203.47 534.74 203.95 533.94 204.42 533.15 204.9 532.35 205.37 531.56 205.85 530.77 206.32 529.97 206.8 529.18 207.28 528.39 207.75 527.59 208.23 526.8 208.7 526 209.18 525.21 209.65 524.42 210.13 523.62 210.6 522.83 211.08 522.04 211.55 521.24 212.03 520.45 212.5 519.65 212.98 518.86 213.45 518.07 213.93 517.27 214.4 516.48 214.88 515.69 215.36 514.89 215.83 514.1 216.31 513.3 216.78 512.51 217.26 511.72 217.73 510.92 218.21 510.13 218.68 509.34 219.16 508.54 219.63 507.75 220.11 506.95 220.58 506.16 221.06 505.37 221.53 504.57 222.01 503.78 222.48 502.99 222.96 502.19 223.43 501.4 223.91 500.6 224.38 499.81 224.86 499.02 225.34 498.22 225.81 497.43 226.29 496.63 226.76 495.84 227.24 495.05 227.71 494.25 228.19 493.46 228.66 492.67 229.14 491.87 229.61 491.08 230.09 490.28 230.56 489.49 231.04 488.7 231.51 487.9 231.99 487.11 232.46 486.32 232.94 485.52 233.42 484.73 233.89 483.93 234.37 483.14 234.84 482.35 235.32 481.55 235.79 480.76 236.27 479.97 236.74 479.17 237.22 478.38 237.69 477.58 238.17 476.79 238.64 476 239.12 475.2 239.59 474.41 240.07 473.62 240.54 472.82 241.02 472.03 241.5 471.23 241.97 470.44 242.45 469.65 242.92 468.85 243.4 468.06 243.87 467.26 244.35 466.47 244.82 465.68 245.3 464.88 245.77 464.09 246.25 463.3 246.72 462.5 247.2 461.71 247.67 460.91 248.15 460.12 248.62 459.33 249.1 458.53 249.57 457.74 250.05 456.95 250.52 456.15 251 455.36 251.48 454.56 251.95 453.77 252.43 452.98 252.9 452.18 253.38 451.39 253.85 450.6 254.33 449.8 254.8 449.01 255.28 448.21 255.75 447.42 256.23 446.63 256.7 445.83 257.18 445.04 257.65 444.25 258.13 443.45 258.6 442.66 259.08 441.86 259.56 441.07 260.03 440.28 260.51 439.48 260.98 438.69 261.46 437.89 261.93 437.1 262.41 436.31 262.88 435.51 263.36 434.72 263.83 433.93 264.31 433.13 264.78 432.34 265.26 431.54 265.73 430.75 266.21 429.96 266.68 429.16 267.16 428.37 267.64 427.58 268.11 426.78 268.59 425.99 269.06 425.19 269.54 424.4 270.01 423.61 270.49 422.81 270.96 422.02 271.44 421.23 271.91 420.43 272.39 419.64 272.86 418.84 273.34 418.05 273.81 417.26 274.29 416.46 274.76 415.67 275.24 414.88 275.71 414.08 276.19 413.29 276.66 412.49 277.14 411.7 277.62 410.91 278.09 410.11 278.57 409.32 279.04 408.52 279.52 407.73 279.99 406.94 280.47 406.14 280.94 405.35 281.42 404.56 281.89 403.76 282.37 402.97 282.84 402.17 283.32 401.38 283.79 400.59 284.27 399.79 284.74 399 285.22 398.21 285.7 397.41 286.17 396.62 286.65 395.82 287.12 395.03 287.6 394.24 288.07 393.44 288.55 392.65 289.02 391.86 289.5 391.06 289.97 390.27 290.45 389.47 290.92 388.68 291.4 387.89 291.87 387.09 292.35 386.3 292.82 385.51 293.3 384.71 293.78 383.92 294.25 383.12 294.73 382.33 295.2 381.54 295.68 380.74 296.15 379.95 296.63 379.16 297.1 378.36 297.58 377.57 298.05 376.77 298.53 375.98 299 375.19 299.48 374.39 299.95 373.6 300.43 372.8 300.9 372.01 301.38 371.22 301.85 370.42 302.33 369.63 302.8 368.84 303.28 368.04 303.76 367.25 304.23 366.45 304.71 365.66 305.18 364.87 305.66 364.07 306.13 363.28 306.61 362.49 307.08 361.69 307.56 360.9 308.03 360.1 308.51 359.31 308.98 358.52 309.46 357.72 309.93 356.93 310.41 356.14 310.88 355.34 311.36 354.55 311.84 353.75 312.31 352.96 312.79 352.17 313.26 351.37 313.74 350.58 314.21 349.79 314.69 348.99 315.16 348.2 315.64 347.4 316.11 346.61 316.59 345.82 317.06 345.02 317.54 344.23 318.01 343.43 318.49 342.64 318.96 341.85 319.44 341.05 319.92 340.26 320.39 339.47 320.87 338.67 321.34 337.88 321.82 337.08 322.29 336.29 322.77 335.5 323.24 334.7 323.72 333.91 324.19 333.12 324.67 332.32 325.14 331.53 325.62 330.73 326.09 329.94 326.57 329.15 327.04 328.35 327.52 327.56 327.99 326.77 328.47 325.97 328.94 325.18 329.42 324.38 329.9 323.59 330.37 322.8 330.85 322 331.32 321.21 331.8 320.42 332.27 319.62 332.75 318.83 333.22 318.03 333.7 317.24 334.17 316.45 334.65 315.65 335.12 314.86 335.6 314.06 336.07 313.27 336.55 312.48 337.02 311.68 337.5 310.89 337.98 310.1 338.45 309.3 338.93 308.51 339.4 307.71 339.88 306.92 340.35 306.13 340.83 305.33 341.3 304.54 341.78 303.75 342.25 302.95 342.73 302.16 343.2 301.36 343.68 300.57 344.15 299.78 344.63 298.98 345.1 298.19 345.58 297.4 346.06 296.6 346.53 295.81 347.01 295.01 347.48 294.22 347.96 293.43 348.43 292.63 348.91 291.84 349.38 291.05 349.86 290.25 350.33 289.46 350.81 288.66 351.28 287.87 351.76 287.08 352.23 286.28 352.71 285.49 353.18 284.69 353.66 283.9 354.13 283.11 354.61 282.31 355.08 281.52 355.56 280.73 356.04 279.93 356.51 279.14 356.99 278.34 357.46 277.55 357.94 276.76 358.41 275.96 358.89 275.17 359.36 274.38 359.84 273.58 360.31 272.79 360.79 271.99 361.26 271.2 361.74 270.41 362.21 269.61 362.69 268.82 363.16 268.03 363.64 267.23 364.12 266.44 364.59 265.64 365.07 264.85 365.54 264.06 366.02 263.26 366.49 262.47 366.97 261.68 367.44 260.88 367.92 260.09 368.39 259.29 368.87 258.5 369.34 257.71 369.82 256.91 370.29 256.12 370.77 255.33 371.24 254.53 371.72 253.74 372.2 252.94 372.67 252.15 373.15 251.36 373.62 250.56 374.1 249.77 374.57 248.97 375.05 248.18 375.52 247.39 376 246.59 376.47 245.8 376.95 245.01 377.42 244.21 377.9 243.42 378.37 242.62 378.85 241.83 379.32 241.04 379.8 240.24 380.27 239.45 380.75 238.66 381.22 237.86 381.7 237.07 382.18 236.27 382.65 235.48 383.13 234.69 383.6 233.89 384.08 233.1 384.55 232.31 385.03 231.51 385.5 230.72 385.98 229.92 386.45 229.13 386.93 228.34 387.4 227.54 387.88 226.75 388.35 225.96 388.83 225.16 389.3 224.37 389.78 223.57 390.26 222.78 390.73 221.99 391.21 221.19 391.68 220.4 392.16 219.6 392.63 218.81 393.11 218.02 393.58 217.22 394.06 216.43 394.53 215.64 395.01 214.84 395.48 214.05 395.96 213.25 396.43 212.46 396.91 211.67 397.38 210.87 397.86 210.08 398.34 209.29 398.81 208.49 399.29 207.7 399.76 206.9 400.24 206.11 400.71 205.32 401.19 204.52 401.66 203.73 402.14 202.94 402.61 202.14 403.09 201.35 403.56 200.55 404.04 199.76 404.51 198.97 404.99 198.17 405.46 197.38 405.94 196.59 406.41 195.79 406.89 195 407.36 194.2 407.84 193.41 408.32 192.62 408.79 191.82 409.27 191.03 409.74 190.23 410.22 189.44 410.69 188.65 411.17 187.85 411.64 187.06 412.12 186.27 412.59 185.47 413.07 184.68 413.54 183.88 414.02 183.09 414.49 182.3 414.97 181.5 415.44 180.71 415.92 179.92 416.4 179.12 416.87 178.33 417.35 177.53 417.82 176.74 418.3 175.95 418.77 175.15 419.25 174.36 419.72 173.57 420.2 172.77 420.67 171.98 421.15 171.18 421.62 170.39 422.1 169.6 422.57 168.8 423.05 168.01 423.52 167.22 424 166.42 424.48 165.63 424.95 164.83 425.43 164.04 425.9 163.25 426.38 162.45 426.85 161.66 427.33 160.86 427.8 160.07 428.28 159.28 428.75 158.48 429.23 157.69 429.7 156.9 430.18 156.1 430.65 155.31 431.13 154.51 431.6 153.72 432.08 152.93 432.55 152.13 433.03 151.34 433.5 150.55 433.98 149.75 434.46 148.96 434.93 148.16 435.41 147.37 435.88 146.58 436.36 145.78 436.83 144.99 437.31 144.2 437.78 143.4 438.26 142.61 438.73 141.81 439.21 141.02 439.68 140.23 440.16 139.43 440.63 138.64 441.11 137.85 441.58 137.05 442.06 136.26 442.54 135.46 443.01 134.67 443.49 133.88 443.96 133.08 444.44 132.29 444.91 131.5 445.39 130.7 445.86 129.91 446.34 129.11 446.81 128.32 447.29 127.53 447.76 126.73 448.24 125.94 448.71 125.14 449.19 124.35 449.66 123.56 450.14 122.76 450.62 121.97 451.09 121.18 451.57 120.38 452.04 119.59 452.52 118.79 452.99 118 453.47 117.21 453.94 116.41 454.42 115.62 454.89 114.83 455.37 114.03 455.84 113.24 456.32 112.44 456.79 111.65 457.27 110.86 457.74 110.06 458.22 109.27 458.69 108.48 459.17 107.68 459.64 106.89 460.12 106.09 460.6 105.3 461.07 104.51 461.55 103.71 462.02 102.92 462.5 102.13 462.97 101.33 463.45 100.54 463.92 99.74 464.4 98.95 464.87 98.16 465.35 97.36 465.82 96.57 466.3 95.77 466.77 94.98 467.25 94.19 467.72 93.39 468.2 92.6 468.68 91.81 469.15 91.01 469.63 90.22 470.1 89.42 470.58 88.63 471.05 87.84 471.53 87.04 472 86.25 472.48 85.46 472.95 84.66 473.43 83.87 473.9 83.07 474.38 82.28 474.85 81.49 475.33 80.69 475.8 79.9 476.28 79.11 476.76 78.31 477.23 77.52 477.71 76.72 478.18 75.93 478.66 75.14 479.13 74.34 479.61 73.55 480.08 72.76 480.56 71.96 481.03 71.17 481.51 70.37 481.98 69.58 482.46 68.79 482.93 67.99 483.41 67.2 483.88 66.4 484.36 65.61 484.83 64.82 485.31 64.02 485.78 63.23 486.26 62.44 486.74 61.64 487.21 60.85 487.69 60.05 488.16 59.26 488.64 58.47 489.11 57.67 489.59 56.88 490.06 56.09 490.54 55.29 491.01 54.5 491.49 53.7 491.96 52.91 492.44 52.12 492.91 51.32 493.39 50.53 493.86 49.74 494.34 48.94 494.82 48.15 495.29 47.35 495.77 46.56 496.24 45.77 496.72 44.97"/>
    <text class="cls-7" transform="translate(55.25 764.13)"><tspan x="0" y="0">1960</tspan></text>
    <text class="cls-7" transform="translate(102.92 764.13)"><tspan x="0" y="0">1970</tspan></text>
    <text class="cls-7" transform="translate(150.58 764.13)"><tspan x="0" y="0">1980</tspan></text>
    <text class="cls-7" transform="translate(198.25 764.13)"><tspan x="0" y="0">1990</tspan></text>
    <text class="cls-7" transform="translate(245.91 764.13)"><tspan x="0" y="0">2000</tspan></text>
    <text class="cls-7" transform="translate(293.58 764.13)"><tspan x="0" y="0">2010</tspan></text>
    <text class="cls-7" transform="translate(341.25 764.13)"><tspan x="0" y="0">2020</tspan></text>
    <text class="cls-7" transform="translate(388.91 764.13)"><tspan x="0" y="0">2030</tspan></text>
    <text class="cls-7" transform="translate(436.58 764.13)"><tspan x="0" y="0">2040</tspan></text>
    <text class="cls-7" transform="translate(484.24 764.13)"><tspan x="0" y="0">2050</tspan></text>
    <text class="cls-7" transform="translate(30.04 739.36)"><tspan x="0" y="0">-0.5</tspan></text>
    <text class="cls-7" transform="translate(34.04 616.18)"><tspan x="0" y="0">0.0</tspan></text>
    <text class="cls-7" transform="translate(34.04 493.85)"><tspan x="0" y="0">0.5</tspan></text>
    <text class="cls-7" transform="translate(34.04 372.87)"><tspan x="0" y="0">1.0</tspan></text>
    <text class="cls-7" transform="translate(34.04 250.54)"><tspan x="0" y="0">1.5</tspan></text>
    <text class="cls-7" transform="translate(34.04 132.64)"><tspan x="0" y="0">2.0</tspan></text>
    <text class="cls-7" transform="translate(34.04 10.31)"><tspan x="0" y="0">2.5</tspan></text>
    <text class="cls-6" transform="translate(13.74 464.84) rotate(-90)"><tspan x="0" y="0">Change in temperature (°C)</tspan></text>
    <text class="cls-6" transform="translate(266.65 788.81)"><tspan x="0" y="0">Year</tspan></text>
    <text transform="translate(80.41 35.95)"><tspan class="cls-8"><tspan x="0" y="0">a</tspan><tspan class="cls-4" x="22.25" y="0" xml:space="preserve"> burning </tspan><tspan x="193.32" y="0">truth</tspan></tspan><tspan class="cls-5"><tspan x="0" y="33.6">the average surface temperature has risen over </tspan><tspan class="cls-4" x="301.12" y="33.6">1.5 °C</tspan></tspan><tspan class="cls-5"><tspan x="0" y="50.4">around the globe </tspan><tspan class="cls-4" x="111.27" y="50.4">since 1980</tspan></tspan><tspan class="cls-5"><tspan x="0" y="84">according to the UN, more than </tspan><tspan class="cls-4" x="201.53" y="84">2 million</tspan><tspan x="252.87" y="84" xml:space="preserve"> have</tspan></tspan><tspan class="cls-5"><tspan x="0" y="100.8">been </tspan><tspan class="cls-4" x="35.8" y="100.8">killed</tspan><tspan class="cls-9" x="68.46" y="100.8" xml:space="preserve"> from climate-related disasters</tspan></tspan></text>
    <g>
      <polyline class="cls-1" points="301.85 434.78 301.85 466.73 327.55 466.73"/>
      <path class="cls-10" d="m298.09,434.97c0-2.08,1.68-3.76,3.76-3.76s3.76,1.68,3.76,3.76-1.68,3.76-3.76,3.76-3.76-1.68-3.76-3.76Z"/>
    </g>
    <g>
      <polyline class="cls-1" points="250.09 419.76 250.09 401.42 209.62 401.42"/>
      <circle class="cls-10" cx="250.09" cy="419.57" r="3.76"/>
    </g>
    <g>
      <polyline class="cls-1" points="231.27 505.53 231.27 523.87 271.74 523.87"/>
      <circle class="cls-10" cx="231.27" cy="505.72" r="3.76"/>
    </g>
    <text class="cls-5" transform="translate(335.12 462.37)"><tspan x="0" y="0">over </tspan><tspan class="cls-4" x="31.12" y="0">300,000 killed</tspan><tspan x="118.27" y="0" xml:space="preserve"> in Haiti </tspan><tspan x="0" y="16.8">from earthquakes (2010)</tspan></text>
    <text class="cls-5" transform="translate(275.87 521.2)"><tspan x="0" y="0">over </tspan><tspan class="cls-4" x="31.12" y="0">138,000 killed</tspan><tspan x="118.27" y="0" xml:space="preserve"> in</tspan><tspan x="0" y="16.8">Bangladesh from</tspan><tspan x="0" y="33.6">cyclones (1991)</tspan></text>
    <g>
      <line class="cls-1" x1="369.32" y1="301.77" x2="391.86" y2="301.77"/>
      <path class="cls-10" d="m371.2,305.13c-1.86.92-4.12.16-5.04-1.7s-.16-4.12,1.7-5.04c1.86-.92,4.12-.16,5.04,1.7.92,1.86.16,4.12-1.7,5.04Z"/>
    </g>
    <text class="cls-5" transform="translate(398.66 297.76)"><tspan x="0" y="0">over </tspan><tspan class="cls-4" x="31.12" y="0">50,000 killed </tspan><tspan x="0" y="16.8">in European </tspan><tspan x="0" y="33.6">heatwaves (2022)</tspan></text>
    <text class="cls-5" transform="translate(102.24 395.17)"><tspan x="0" y="0">Hurricane Mitch </tspan><tspan class="cls-4"><tspan x="0" y="16.8">kills over 11,000</tspan></tspan><tspan x="0" y="33.6">(1998)</tspan></text>
  </g>
</svg>